<?xml version="1.0" encoding="utf-8"?>
<svg width="311px" height="155px" viewBox="0 0 311 155" version="1.1" xmlns:xlink="http://www.w3.org/1999/xlink" xmlns="http://www.w3.org/2000/svg">
  <desc>Created with Lunacy</desc>
  <g id="Wording">
    <path d="M3.77364 0C1.66039 0 0 1.71075 0 3.77369L0 57.9638C0 60.0771 1.71073 61.7375 3.77364 61.7375C5.83654 61.7375 7.54727 60.0268 7.54727 57.9638L7.54727 3.77369C7.54727 1.66042 5.88688 0 3.77364 0L3.77364 0Z" transform="translate(257.4158 92.88454)" id="Combined-Shape" fill="#FFFFFF" stroke="none" />
    <path d="M83.5828 76.5897C85.7969 73.7717 89.1684 72.1111 92.7411 72.1111C98.7293 72.1111 103.812 76.8413 104.265 82.8294C104.265 82.9301 104.315 83.081 104.315 83.1817L104.315 96.7683C104.315 98.7811 105.925 100.442 107.988 100.442C110.001 100.442 111.662 98.8314 111.662 96.7683L111.662 81.3198C112.316 75.6839 117.247 72.1112 123.236 72.1615C124.443 72.1615 126.104 72.3628 127.714 72.5137C131.891 72.9666 134.155 73.2182 135.866 71.7086C136.721 70.9538 137.174 69.8971 137.174 68.79C137.325 30.5463 107.636 0.454491 69.4929 0.00159285C69.3923 0.00159285 69.2413 0.00159285 69.1407 0.00159285C69.0401 0.00159285 68.9897 0.00159285 68.8891 0.00159285C68.8891 0.00159285 68.8388 0.00159285 68.8388 0.00159285C68.7885 0.00159285 68.7381 0.00159285 68.6878 0.00159285C30.2931 -0.0487309 0.150956 29.9424 0 68.3371C0 69.4442 0.452884 70.5512 1.30834 71.306C3.06957 72.866 5.43465 72.6144 9.71191 72.1615C11.3725 71.9602 13.0834 71.8092 14.3414 71.8092C20.7322 71.8092 25.9152 77.0426 25.9152 83.4333C25.9152 83.7352 25.9655 84.0372 26.0158 84.2888L25.9655 89.5221C25.9655 91.6356 27.7268 93.2962 29.8905 93.1452C31.7524 92.9943 33.1614 91.2834 33.1614 89.4215L33.2117 82.7288C33.6646 76.6904 38.747 72.0105 44.7855 72.0105C48.3582 72.0105 51.6794 73.6711 53.8935 76.5394L56.7618 80.2128L59.6301 76.5394C61.19 74.5266 63.3035 73.1679 65.6686 72.5137L65.6183 92.8936L65.568 92.9943L65.568 99.8882L65.5177 118.708C65.5177 118.708 65.568 118.708 65.568 118.708L65.568 123.841C65.568 136.622 55.4535 147.039 43.0746 147.039C30.6957 147.039 20.6315 136.673 20.6315 123.841L20.7826 115.425C20.7826 113.311 19.0717 111.651 17.0086 111.651L17.0086 111.651C14.8951 111.651 13.2345 113.362 13.2345 115.425L13.0834 123.841C13.0834 140.95 26.5694 154.738 43.0746 154.738C59.6804 154.738 73.0657 140.95 73.0657 123.841L73.0657 72.866C74.9779 73.6208 76.6385 74.8788 77.9469 76.5394L80.7648 80.2128L83.5828 76.5897L83.5828 76.5897ZM129.828 65.4688C129.324 65.4185 128.871 65.3681 128.419 65.3178C127.714 65.2172 127.01 65.1669 126.305 65.1165C124.695 42.2206 111.058 23.1994 91.4832 14.0914C91.4832 14.0914 91.4328 14.0411 91.4328 14.0411L91.4328 14.0411C91.4328 14.0411 91.4328 14.0411 91.4328 14.0411C90.1245 12.6321 88.7659 11.3237 87.3065 10.0154C111.36 17.4629 128.62 39.0504 129.828 65.4688L129.828 65.4688ZM68.9897 7.34841C96.8171 17.9661 102.805 51.228 104.013 68.6893C103.912 68.5887 103.761 68.5384 103.661 68.4377C101.799 50.272 94.7539 21.0356 68.9897 11.1728C68.3355 11.4244 67.7317 11.676 67.1278 11.9276C51.4781 18.5699 43.0242 32.6094 38.4953 46.4979C34.52 58.273 33.9161 68.1861 33.9161 68.1861L33.9161 68.1861C33.9161 68.1861 33.9161 68.1861 33.9161 68.1861C33.8155 68.2868 33.6645 68.3371 33.5639 68.4377C34.822 51.0267 41.0617 17.7648 68.9897 7.34841L68.9897 7.34841ZM8.90676 64.9153C8.40355 64.9656 7.85002 65.016 7.29649 65.0663C8.70547 38.3963 26.4184 16.8087 50.8239 9.66316C48.6098 11.525 46.6473 13.5379 44.7854 15.6513L44.7854 15.6513C44.7854 15.6513 44.5338 15.8526 44.0306 16.2049C25.6132 25.2123 12.6305 43.1264 10.4667 64.714C9.9635 64.8147 9.40997 64.865 8.90676 64.9153L8.90676 64.9153Z" id="Shape" fill="#FFFFFF" stroke="none" />
    <path d="M19.9754 0C8.90588 0 0 9.20778 0 20.5792C0 31.9506 8.90588 41.1583 19.9754 41.1583C24.7554 41.1583 28.9819 39.4476 32.504 36.6802L32.504 37.435C32.504 39.4979 34.1645 41.1583 36.2274 41.1583C38.2903 41.1583 39.9508 39.4979 39.9508 37.435L39.9508 20.5792C40.0011 9.15745 31.0449 0 19.9754 0L19.9754 0ZM19.9754 33.46C13.0821 33.46 7.4467 27.6737 7.4467 20.5792C7.4467 13.4847 13.082 7.69834 19.9754 7.69834C26.8687 7.69834 32.504 13.4847 32.504 20.5792C32.504 27.6737 26.8687 33.46 19.9754 33.46L19.9754 33.46Z" transform="translate(270.7998 113.4637)" id="Shape" fill="#FFFFFF" stroke="none" />
    <path d="M19.9754 0C8.90593 0 0 9.30842 0 20.5792C0 31.9505 8.90593 41.1583 19.9754 41.1583C24.8561 41.1583 29.3845 39.347 32.9067 36.328C35.5231 34.0638 33.8627 29.6863 30.3405 29.6863C29.4852 29.6863 28.6298 29.9882 27.9757 30.5417C25.7618 32.3531 23.0447 33.5104 19.9754 33.5104C14.34 33.5104 9.61037 29.7367 8.05055 24.5038L39.5987 24.5038C39.7999 23.2962 40.0012 21.988 40.0012 20.6295C39.9509 9.25809 31.045 0 19.9754 0L19.9754 0ZM8.05054 16.7551C9.61033 11.5726 14.34 7.74862 19.9754 7.74862C25.5102 7.74862 30.2399 11.5223 31.9003 16.7551L8.05054 16.7551L8.05054 16.7551Z" transform="translate(211.6283 113.4637)" id="Shape" fill="#FFFFFF" stroke="none" />
    <path d="M19.9754 20.5792C15.296 20.5792 10.9688 22.2899 7.54738 25.1579L7.54738 3.77369C7.54738 1.66042 5.83663 0 3.77369 0C1.66042 0 0 1.71075 0 3.77369L0 41.1583C0 52.5297 9.00655 61.7375 19.9754 61.7375C31.0449 61.7375 39.9508 52.5297 39.9508 41.1583C39.9508 29.8373 31.0449 20.5792 19.9754 20.5792L19.9754 20.5792ZM19.9754 54.0392C13.0821 54.0392 7.54738 48.2529 7.54738 41.1584C7.54738 34.0639 13.0821 28.3781 19.9754 28.3781C26.8687 28.3781 32.504 34.0638 32.504 41.1584C32.504 48.2529 26.8686 54.0392 19.9754 54.0392L19.9754 54.0392Z" transform="translate(144.658 92.88454)" id="Shape" fill="#FFFFFF" stroke="none" />
    <path d="M15.296 0.114578C6.54105 2.27815 0 10.4293 0 20.1403L0 36.9458C0 39.0591 1.71075 40.7195 3.77368 40.7195L3.77368 40.7195C5.88695 40.7195 7.54736 39.0087 7.54736 36.9458L7.54736 20.1403C7.54736 14.1024 11.5223 9.02049 16.9564 7.61162C18.6672 7.15877 19.9754 5.69963 19.9754 3.93857L19.9754 3.83793C19.9754 1.37247 17.6608 -0.489218 15.296 0.114578L15.296 0.114578Z" transform="translate(190.4454 113.9025)" id="Shape" fill="#FFFFFF" stroke="none" />
    <path d="M43.1709 0C37.8375 0 33.0575 2.51579 29.9882 6.49075C26.8686 2.51579 22.2395 0 16.9061 0C7.59767 0 0 7.79894 0 17.3589L0 37.3846C0 39.4475 1.66041 41.108 3.72338 41.108L3.82402 41.108C5.88695 41.108 7.5474 39.4476 7.5474 37.3846L7.5474 17.3589C7.5474 12.0758 11.7236 7.648 16.8558 7.648C21.988 7.648 26.2649 12.0255 26.2649 17.3589L26.2649 37.3846C26.2649 39.4475 27.9253 41.108 29.9883 41.108C32.0512 41.108 33.7116 39.4476 33.7116 37.3846L33.7116 17.3589C33.7116 12.0758 37.8878 7.648 43.1207 7.648C48.2529 7.648 52.4291 12.0255 52.4291 17.3589L52.4291 37.3846C52.4291 39.4475 54.0895 41.108 56.1525 41.108L56.1525 41.108C58.2154 41.108 59.8759 39.4476 59.8759 37.3846L59.8759 17.3589C59.9764 7.79894 52.5297 0 43.1709 0L43.1709 0Z" transform="translate(78.84496 113.4637)" id="Shape" fill="#FFFFFF" stroke="none" />
  </g>
</svg>