<?xml version="1.0" encoding="utf-8"?>
<svg width="900px" height="449px" viewBox="0 0 900 449" version="1.1" xmlns:xlink="http://www.w3.org/1999/xlink" xmlns="http://www.w3.org/2000/svg">
  <desc>Created with Lunacy</desc>
  <g id="Umbrella">
    <g id="Group">
      <path d="M242.05 221.794C248.462 213.633 258.225 208.824 268.572 208.824C285.913 208.824 300.632 222.523 301.943 239.864C301.943 240.155 302.089 240.593 302.089 240.884L302.089 280.23C302.089 286.059 306.752 290.868 312.727 290.868C318.556 290.868 323.365 286.205 323.365 280.23L323.365 235.492C325.259 219.171 339.54 208.825 356.882 208.97C360.379 208.97 365.188 209.553 369.851 209.99C381.946 211.302 388.504 212.031 393.459 207.659C395.936 205.473 397.248 202.413 397.248 199.207C397.685 88.4555 311.707 1.31174 201.247 0.000177887C200.955 0.000177887 200.518 0.000177887 200.227 0.000177887C199.935 0.000177887 199.79 0.000177887 199.498 0.000177887C199.498 0.000177887 199.352 0.000177887 199.352 0.000177887C199.207 0.000177887 199.061 0.000177887 198.915 0.000177887C87.7267 -0.145556 0.437159 86.7067 0 197.895C0 201.101 1.31152 204.307 3.78887 206.493C8.88926 211.01 15.7384 210.282 28.125 208.97C32.934 208.387 37.8886 207.95 41.5318 207.95C60.0389 207.95 75.0486 223.106 75.0486 241.613C75.0486 242.487 75.1943 243.361 75.3401 244.09L75.1944 259.246C75.1944 265.366 80.2948 270.175 86.561 269.738C91.9528 269.301 96.0331 264.346 96.0331 258.954L96.1788 239.573C97.4904 222.086 112.209 208.533 129.696 208.533C140.042 208.533 149.66 213.342 156.072 221.648L164.378 232.286L172.685 221.648C177.202 215.819 183.323 211.885 190.172 209.99L190.026 269.009L189.88 269.301L189.88 289.265L189.735 343.766C189.735 343.766 189.88 343.766 189.88 343.766L189.88 358.63C189.88 395.645 160.59 425.81 124.741 425.81C88.8925 425.81 59.7475 395.79 59.7475 358.63L59.7475 280.23C59.7475 274.11 54.7928 269.301 48.8181 269.301L48.8181 269.301C42.6976 269.301 37.8887 274.255 37.8887 280.23L37.8887 358.63C37.8887 408.177 76.9431 448.106 124.741 448.106C172.83 448.106 211.593 408.177 211.593 358.63L211.593 211.01C217.131 213.196 221.94 216.839 225.729 221.648L233.889 232.286L242.05 221.794L242.05 221.794ZM375.971 189.589C374.514 189.443 373.203 189.297 371.891 189.152C369.851 188.86 367.811 188.714 365.771 188.569C361.107 122.264 321.616 67.1795 264.929 40.8032C264.929 40.8032 264.783 40.6575 264.783 40.6575L264.783 40.6575C264.783 40.6575 264.783 40.6575 264.783 40.6575C260.994 36.5772 257.059 32.7883 252.833 28.9995C322.49 50.5668 372.474 113.083 375.971 189.589L375.971 189.589ZM199.789 21.276C280.375 52.0241 297.717 148.348 301.214 198.915C300.923 198.624 300.486 198.478 300.194 198.186C294.802 145.58 274.401 60.9133 199.789 32.3512C197.895 33.0798 196.146 33.8085 194.397 34.5371C149.077 53.7728 124.595 94.4302 111.48 134.65C99.9674 168.75 98.2187 197.458 98.2187 197.458L98.2187 197.458C98.2187 197.458 98.2187 197.458 98.2187 197.458C97.9273 197.749 97.4901 197.895 97.1986 198.186C100.842 147.766 118.912 51.4412 199.789 21.276L199.789 21.276ZM25.7934 187.986C24.3361 188.131 22.7331 188.277 21.1301 188.423C25.2104 111.189 76.5058 48.6724 147.183 27.9794C140.771 33.3713 135.087 39.2003 129.696 45.3207L129.696 45.3207C129.696 45.3207 128.967 45.9036 127.51 46.9237C74.1742 73.0085 36.577 124.887 30.3108 187.403C28.8536 187.694 27.2506 187.84 25.7934 187.986L25.7934 187.986Z" id="Shape" fill="#FFFFFF" stroke="none" />
      <path d="M125.032 0C109.585 0 95.7416 7.28626 86.8522 18.7986C77.8173 7.28626 64.4105 0 48.9637 0C22.0045 0 0 22.5874 0 50.2752L0 108.274C0 114.248 4.80892 119.057 10.7837 119.057L11.0752 119.057C17.0499 119.057 21.8589 114.249 21.8589 108.274L21.8589 50.2752C21.8589 34.974 33.9541 22.1502 48.8181 22.1502C63.6821 22.1502 76.0687 34.8283 76.0687 50.2752L76.0687 108.274C76.0687 114.248 80.8776 119.057 86.8524 119.057C92.8272 119.057 97.6361 114.249 97.6361 108.274L97.6361 50.2752C97.6361 34.974 109.731 22.1502 124.887 22.1502C139.751 22.1502 151.846 34.8283 151.846 50.2752L151.846 108.274C151.846 114.248 156.655 119.057 162.63 119.057L162.63 119.057C168.604 119.057 173.413 114.249 173.413 108.274L173.413 50.2752C173.704 22.5874 152.137 0 125.032 0L125.032 0Z" transform="translate(228.3515 328.6108)" id="Shape" fill="#FFFFFF" stroke="none" />
      <path d="M57.853 59.6017C44.3005 59.6017 31.7681 64.5564 21.8588 72.8627L21.8588 10.9294C21.8588 4.80892 16.9041 0 10.9294 0C4.80892 0 0 4.9547 0 10.9294L0 119.203C0 152.137 26.0849 178.805 57.853 178.805C89.9125 178.805 115.706 152.137 115.706 119.203C115.706 86.4151 89.9125 59.6017 57.853 59.6017L57.853 59.6017ZM57.853 156.509C37.8886 156.509 21.8588 139.751 21.8588 119.203C21.8588 98.6562 37.8886 82.1891 57.853 82.1891C77.8173 82.1891 94.1386 98.6561 94.1386 119.203C94.1385 139.751 77.8173 156.509 57.853 156.509L57.853 156.509Z" transform="translate(418.9602 269.0092)" id="Shape" fill="#FFFFFF" stroke="none" />
      <path d="M44.3006 0.331849C18.9443 6.59802 0 30.2055 0 58.3305L0 107.003C0 113.123 4.95471 117.932 10.9294 117.932L10.9294 117.932C17.0499 117.932 21.8588 112.978 21.8588 107.003L21.8588 58.3305C21.8588 40.8435 33.3712 26.1253 49.1096 22.0449C54.0643 20.7333 57.8531 16.5073 57.8531 11.4069L57.8531 11.1155C57.8532 3.97498 51.1497 -1.41687 44.3006 0.331849L44.3006 0.331849Z" transform="translate(551.5701 329.882)" id="Shape" fill="#FFFFFF" stroke="none" />
      <path d="M57.853 0C25.7934 0 0 26.9592 0 59.6017C0 92.5356 25.7934 119.203 57.853 119.203C71.9884 119.203 85.1037 113.957 95.3044 105.214C102.882 98.6562 98.0733 85.9781 87.8725 85.9781C85.3951 85.9781 82.9178 86.8524 81.0234 88.4554C74.6114 93.7015 66.7423 97.0532 57.853 97.0532C41.5317 97.0532 27.8336 86.1238 23.3161 70.9684L114.686 70.9684C115.269 67.4709 115.852 63.6821 115.852 59.7475C115.706 26.8134 89.9126 0 57.853 0L57.853 0ZM23.316 48.5265C27.8335 33.5168 41.5317 22.4417 57.853 22.4417C73.8828 22.4417 87.581 33.3711 92.3899 48.5265L23.316 48.5265L23.316 48.5265Z" transform="translate(612.9205 328.6108)" id="Shape" fill="#FFFFFF" stroke="none" />
      <path d="M10.9295 0C4.80896 0 0 4.9547 0 10.9294L0 167.876C0 173.996 4.95474 178.805 10.9295 178.805C16.9043 178.805 21.859 173.85 21.859 167.876L21.859 10.9294C21.859 4.80892 17.05 0 10.9295 0L10.9295 0Z" transform="translate(745.5305 269.0092)" id="Shape" fill="#FFFFFF" stroke="none" />
      <path d="M57.853 0C25.7934 0 0 26.6677 0 59.6017C0 92.5357 25.7934 119.203 57.853 119.203C71.6969 119.203 83.9379 114.249 94.1387 106.234L94.1387 108.42C94.1387 114.394 98.9477 119.203 104.922 119.203C110.897 119.203 115.706 114.395 115.706 108.42L115.706 59.6017C115.852 26.5219 89.9126 0 57.853 0L57.853 0ZM57.853 96.9074C37.8886 96.9074 21.5673 80.149 21.5673 59.6017C21.5673 39.0545 37.8885 22.2961 57.853 22.2961C77.8175 22.2961 94.1386 39.0545 94.1386 59.6017C94.1386 80.149 77.8175 96.9074 57.853 96.9074L57.853 96.9074Z" transform="translate(784.2933 328.6108)" id="Shape" fill="#FFFFFF" stroke="none" />
    </g>
  </g>
</svg>